Coordinates
version=1
nRows=8
nColumns=63
inDegrees=yes

Units are S.I. units (second, meters, Newtons, ...)
If the header above contains a line with 'inDegrees', this indicates whether rotational values are in degrees (yes) or radians (no).

endheader
time	pelvis_tilt	pelvis_list	pelvis_rotation	pelvis_tx	pelvis_ty	pelvis_tz	hip_flexion_r	hip_adduction_r	hip_rotation_r	knee_angle_r	knee_angle_r_beta	ankle_angle_r	subtalar_angle_r	mtp_angle_r	hip_flexion_l	hip_adduction_l	hip_rotation_l	knee_angle_l	knee_angle_l_beta	ankle_angle_l	subtalar_angle_l	mtp_angle_l	L5_S1_Flex_Ext	L5_S1_Lat_Bending	L5_S1_axial_rotation	L4_L5_Flex_Ext	L4_L5_Lat_Bending	L4_L5_axial_rotation	L3_L4_Flex_Ext	L3_L4_Lat_Bending	L3_L4_axial_rotation	L2_L3_Flex_Ext	L2_L3_Lat_Bending	L2_L3_axial_rotation	L1_L2_Flex_Ext	L1_L2_Lat_Bending	L1_L2_axial_rotation	L1_T12_Flex_Ext	L1_T12_Lat_Bending	L1_T12_axial_rotation	Abs_r3	Abs_r2	Abs_r1	Abs_t1	Abs_t2	neck_flexion	neck_bending	neck_rotation	arm_flex_r	arm_add_r	arm_rot_r	elbow_flex_r	pro_sup_r	wrist_flex_r	wrist_dev_r	arm_flex_l	arm_add_l	arm_rot_l	elbow_flex_l	pro_sup_l	wrist_flex_l	wrist_dev_l
      8.42000000	     -8.01795965	    -12.98872125	     89.91439238	      0.20317348	      0.96350351	      0.62118154	      5.73550792	     -3.88892273	     -4.13619949	      5.56837452	      0.09718647	     26.85217110	      2.59678024	      0.00000000	      7.13207318	      2.76102476	     -5.78133525	      7.17595930	      0.12524412	     28.97505970	     13.73271036	      0.00000000	     -0.49524647	     -0.39968934	      0.06418853	     -0.91972222	     -0.53158683	      0.06820031	     -0.81364042	     -0.97180467	      0.06820031	     -0.56601719	     -0.97180467	      0.05616496	     -0.45988587	     -0.81504651	      0.05215318	     -0.28298383	     -0.61911879	      0.04814140	     -3.53749600	     -4.52136578	      0.35699734	      0.00000000	      0.00000000	     21.52134964	     -0.16007262	     -6.48954242	     12.41933597	     -9.86906388	    156.77025126	      0.98324266	      3.18963650	     -7.23174970	     -6.04344277	     16.24582117	    -10.21454511	    178.95808069	      1.10396144	      6.08240218	     -4.61667971	     -1.60031602
      8.44000000	     -7.90560450	    -12.91908205	     90.16312374	      0.20304538	      0.96370015	      0.62082054	      5.50383272	     -3.79418884	     -5.15648521	      5.22722295	      0.09123225	     27.12432334	      3.89487328	      0.00000000	      7.05127140	      2.65915502	     -5.66645477	      7.19144116	      0.12551433	     28.99812090	     13.84627058	      0.00000000	     -0.48578137	     -0.39458489	      0.01383616	     -0.90214459	     -0.52479790	      0.01470092	     -0.79809022	     -0.95939369	      0.01470092	     -0.55519953	     -0.95939369	      0.01210664	     -0.45109658	     -0.80463750	      0.01124188	     -0.27757548	     -0.61121199	      0.01037712	     -3.46988778	     -4.46362315	      0.07695259	      0.00000000	      0.00000000	     22.01345546	     -0.36323993	     -6.43986007	     12.44957631	     -9.78386442	    157.18601585	      0.98159603	      2.98412160	     -6.54690401	     -5.84553134	     16.16197694	    -10.27889736	    177.93830494	      1.22371524	      6.98128216	     -4.50380751	     -1.64774650
      8.46000000	     -7.78779131	    -12.79700510	     90.14152735	      0.20330068	      0.96382365	      0.62056795	      5.19298620	     -3.59156295	     -4.33038171	      4.64286277	      0.08103324	     27.14274976	      3.22121615	      0.00000000	      6.89849240	      2.51550189	     -5.77341056	      7.18216500	      0.12535243	     29.09676643	     13.99117443	      0.00000000	     -0.47721443	     -0.39057474	      0.03610852	     -0.88623492	     -0.51946440	      0.03836530	     -0.78401559	     -0.94964342	      0.03836530	     -0.54540838	     -0.94964342	      0.03159496	     -0.44314132	     -0.79646000	      0.02933817	     -0.27268033	     -0.60500027	      0.02708139	     -3.40869498	     -4.41825954	      0.20082476	      0.00000000	      0.00000000	     22.35971680	     -0.58217129	     -6.33223574	     12.44928948	     -9.70641871	    156.79439452	      1.05333046	      3.04739324	     -5.73097513	     -5.82679421	     16.13708555	    -10.33282773	    178.17842544	      1.33051571	      6.29423731	     -4.07138546	     -1.61291705
      8.48000000	     -7.68955462	    -12.73608888	     90.23006003	      0.20356760	      0.96389091	      0.62059316	      5.14142296	     -3.46090246	     -4.24912311	      4.47834108	      0.07816180	     27.51268667	      3.21472402	      0.00000000	      6.84955743	      2.39252754	     -5.73577007	      7.20345280	      0.12572397	     29.08172817	     14.00678030	      0.00000000	     -0.46103405	     -0.39439490	      0.05471096	     -0.85618633	     -0.52454522	      0.05813040	     -0.75743284	     -0.95893177	      0.05813040	     -0.52691581	     -0.95893177	      0.04787209	     -0.42811622	     -0.80425009	      0.04445266	     -0.26343486	     -0.61091770	      0.04103322	     -3.29312010	     -4.46147402	      0.30428596	      0.00000000	      0.00000000	     22.51387799	     -0.65168086	     -6.27730658	     12.40446671	     -9.55318970	    156.81970333	      1.16064075	      3.05139009	     -5.62902496	     -5.86290821	     16.10509698	    -10.42478367	    178.13181310	      1.44282576	      6.25903711	     -4.01238401	     -1.60135154
      8.50000000	     -7.45504710	    -12.54342919	     90.23674456	      0.20324958	      0.96403198	      0.62057554	      4.68720281	     -3.20944547	     -3.81498132	      3.68576103	      0.06432867	     27.50641627	      3.22212257	      0.00000000	      6.66006272	      2.16686862	     -5.66104187	      7.23390282	      0.12625542	     29.31585475	     13.97039741	      0.00000000	     -0.46762961	     -0.36643718	      0.05698519	     -0.86843496	     -0.48736145	      0.06054676	     -0.76826869	     -0.89095535	      0.06054676	     -0.53445389	     -0.89095535	      0.04986204	     -0.43424086	     -0.74723869	      0.04630046	     -0.26720356	     -0.56761119	      0.04273889	     -3.34023158	     -4.14521065	      0.31693451	      0.00000000	      0.00000000	     22.64485902	     -1.01467026	     -5.82448431	     12.47421717	     -9.62844214	    156.83894276	      1.13178047	      2.91927865	     -4.53458992	     -6.42123515	     16.05235419	    -10.36238604	    176.97620785	      1.63959676	      5.41278982	     -3.17237545	     -1.65464486
      8.52000000	     -7.34286270	    -12.38948080	     90.28467021	      0.20320505	      0.96402040	      0.62049878	      4.41519050	     -3.02269229	     -1.75904580	      3.31977946	      0.05794108	     27.16829285	      0.48479425	      0.00000000	      6.46253456	      2.06807148	     -5.32029173	      7.15904291	      0.12494887	     29.39569882	     13.69120485	      0.00000000	     -0.46502192	     -0.35898642	      0.03474417	     -0.86359220	     -0.47745194	      0.03691568	     -0.76398451	     -0.87283958	      0.03691568	     -0.53147355	     -0.87283958	      0.03040115	     -0.43181935	     -0.73204511	      0.02822964	     -0.26571352	     -0.55606996	      0.02605813	     -3.32160505	     -4.06092618	      0.19323664	      0.00000000	      0.00000000	     22.47701571	     -1.10802468	     -5.23072951	     12.47285757	     -9.52467792	    157.00290516	      1.12950413	      2.75276509	     -4.26141566	     -6.77544202	     15.90212301	    -10.43682625	    174.87695017	      1.83398805	      5.27547454	     -2.56168171	     -1.69488083
      8.54000000	     -7.19540423	    -12.28933667	     90.35159770	      0.20295922	      0.96397871	      0.62074345	      4.42472084	     -2.94591241	     -3.36068019	      3.56269841	      0.06218082	     27.75548578	      2.63722259	      0.00000000	      6.39685505	      1.92600336	     -5.32418571	      7.20084010	      0.12567837	     29.53729232	     13.75319697	      0.00000000	     -0.46292971	     -0.34162517	      0.01147127	     -0.85970676	     -0.45436148	      0.01218822	     -0.76054721	     -0.83062745	      0.01218822	     -0.52908236	     -0.83062745	      0.01003736	     -0.42987652	     -0.69664206	      0.00932041	     -0.26451803	     -0.52917739	      0.00860345	     -3.30666059	     -3.86453229	      0.06379975	      0.00000000	      0.00000000	     22.17072940	     -1.41933872	     -4.52066621	     12.44514833	     -9.49624444	    156.60298437	      1.10464578	      2.81124919	     -4.22401914	     -7.15747072	     15.86990363	    -10.40657451	    173.08044177	      2.14500764	      5.12871726	     -2.17784418	     -1.60306097
      8.56000000	     -7.08850351	    -12.15819551	     90.66727846	      0.20264707	      0.96393665	      0.62046456	      3.95643790	     -2.72265813	     -0.19754176	      2.98877723	      0.05216400	     26.57423306	     -2.16278581	      0.00000000	      6.27699899	      1.82027509	     -5.25652106	      7.25669980	      0.12665330	     29.70771587	     14.09928104	      0.00000000	     -0.46179420	     -0.33006505	     -0.04653745	     -0.85759801	     -0.43898651	     -0.04944604	     -0.75868169	     -0.80252016	     -0.04944604	     -0.52778459	     -0.80252016	     -0.04072027	     -0.42882210	     -0.67306864	     -0.03781168	     -0.26386921	     -0.51127076	     -0.03490309	     -3.29854980	     -3.73376183	     -0.25882733	      0.00000000	      0.00000000	     21.71387784	     -1.79273369	     -3.91332311	     12.32604392	     -9.44354831	    156.21516711	      1.08562423	      2.80752254	     -4.25051377	     -7.32984378	     15.87071871	    -10.40992209	    171.40917031	      2.58565455	      5.06205884	     -1.95820724	     -1.59933536
